<?xml version="1.0" encoding="UTF-8"?>
<svg width="39px" height="31px" viewBox="0 0 39 31" version="1.1" xmlns="http://www.w3.org/2000/svg" xmlns:xlink="http://www.w3.org/1999/xlink">
    <title>4461AD24-30D9-4742-BED8-73E703B3D45D@1,5x</title>
    <g id="Landing-consulenza-finanziaria_v1&amp;2" stroke="none" stroke-width="1" fill="none" fill-rule="evenodd">
        <g id="Desktop_Consulenza-finanziaria_v1" transform="translate(-1195.000000, -11.000000)" fill="#375D81" fill-rule="nonzero">
            <g id="user" transform="translate(1195.000000, 11.000000)">
                <path d="M20.7224,19.9855 C18.986,18.9563 16.6288,17.9327 14.9036,16.0407 L14.9036,15.1587 C15.7048,14.2247 16.3088,13.1467 16.72,11.8911 C16.7784,11.7115 16.8336,11.5287 16.884,11.3423 C17.3036,11.1267 17.6456,10.5531 17.7224,9.8495 C17.7484,9.6155 17.7428,9.3891 17.7104,9.1799 C17.6556,8.8315 17.5268,8.5319 17.3464,8.3251 C17.3824,7.6587 17.3836,6.9547 17.3528,6.2127 C17.3288,5.6355 17.2848,5.0355 17.2188,4.4091 C17.2024,4.2543 17.182,4.1055 17.1568,3.9611 C16.532,0.3591 13.2544,0.0035 12.0092,0.0003 C11.9592,0 11.0976,0 11.048,0.0003 C9.8028,0.0031 6.5252,0.3591 5.9004,3.9611 C5.8756,4.1051 5.8548,4.2543 5.8384,4.4091 C5.7728,5.0355 5.7292,5.6351 5.7044,6.2127 C5.6728,6.9547 5.6744,7.6591 5.7108,8.3251 C5.53,8.5319 5.4008,8.8315 5.3472,9.1799 C5.3144,9.3891 5.3088,9.6151 5.3344,9.8495 C5.412,10.5531 5.7528,11.1271 6.1728,11.3423 C6.2744,11.7159 6.3916,12.0739 6.5252,12.4183 C6.9244,13.4519 7.4668,14.3579 8.1536,15.1587 L8.1536,16.0403 L8.1536,16.0407 C5.08,19.4111 -2.27373675e-14,20.0255 -2.27373675e-14,22.8255 L-2.27373675e-14,25.8783 C-2.27373675e-14,26.2531 0.3036,26.5575 0.6788,26.5575 L12.44,26.5575 C12.9208,23.8507 17.2164,22.7715 20.7224,19.9855 Z" id="Path"></path>
                <path d="M29.4944,19.2991 L29.4892,17.9823 C31.3512,18.2255 35.1464,16.8699 35.1464,16.8699 C33.86,15.5543 33.5688,14.0187 32.724,7.9927 C31.8796,1.9663 26.6428,2.02268096 26.2484,2.02268096 C25.8544,2.02268096 20.6172,1.9663 19.7728,7.9927 C18.928,14.0183 18.6372,15.5543 17.3504,16.8699 C17.3504,16.8699 21.146,18.2255 23.0076,17.9823 L23.0024,19.2991 C19.69,22.9315 14.1976,23.5939 14.198,26.6123 L14.198,29.9035 C14.198,30.3075 14.5256,30.6355 14.9296,30.6355 L26.2312,30.6355 L26.2652,30.6355 L37.5668,30.6355 C37.9708,30.6355 38.2984,30.3075 38.2984,29.9035 L38.2984,26.6123 C38.2992,23.5939 32.8068,22.9315 29.4944,19.2991 Z" id="Path"></path>
            </g>
        </g>
    </g>
</svg>